<svg width="24" height="24" viewBox="0 0 24 24" fill="none" xmlns="http://www.w3.org/2000/svg">
<g clip-path="url(#clip0_94_1398)">
<path d="M12 0.75C9.77497 0.75 7.59989 1.4098 5.74984 2.64597C3.89979 3.88213 2.45785 5.63914 1.60636 7.69481C0.754875 9.75048 0.532087 12.0125 0.966171 14.1948C1.40025 16.3771 2.47171 18.3816 4.04505 19.955C5.61839 21.5283 7.62295 22.5998 9.80524 23.0338C11.9875 23.4679 14.2495 23.2451 16.3052 22.3936C18.3609 21.5422 20.1179 20.1002 21.354 18.2502C22.5902 16.4001 23.25 14.225 23.25 12C23.2489 9.01664 22.0633 6.15579 19.9538 4.04623C17.8442 1.93668 14.9834 0.751073 12 0.75ZM15.705 14.655C15.7761 14.7227 15.8327 14.8042 15.8714 14.8944C15.9101 14.9847 15.93 15.0818 15.93 15.18C15.93 15.2782 15.9101 15.3753 15.8714 15.4656C15.8327 15.5558 15.7761 15.6373 15.705 15.705C15.6381 15.7771 15.5568 15.8344 15.4664 15.8732C15.3759 15.9119 15.2784 15.9313 15.18 15.93C15.0818 15.9298 14.9847 15.9098 14.8945 15.8712C14.8043 15.8325 14.7228 15.776 14.655 15.705L12 13.05L9.34501 15.705C9.27719 15.776 9.19572 15.8325 9.1055 15.8712C9.01528 15.9098 8.91816 15.9298 8.82001 15.93C8.72163 15.9313 8.62408 15.9119 8.53365 15.8732C8.44322 15.8344 8.36192 15.7771 8.29501 15.705C8.2239 15.6373 8.16729 15.5558 8.12861 15.4656C8.08993 15.3753 8.06998 15.2782 8.06998 15.18C8.06998 15.0818 8.08993 14.9847 8.12861 14.8944C8.16729 14.8042 8.2239 14.7227 8.29501 14.655L10.95 12L8.29501 9.345C8.15808 9.20528 8.08183 9.01717 8.08282 8.82155C8.08381 8.62593 8.16195 8.4386 8.30028 8.30028C8.43861 8.16195 8.62594 8.0838 8.82156 8.08281C9.01718 8.08182 9.20529 8.15808 9.34501 8.295L12 10.95L14.655 8.295C14.7237 8.22491 14.8056 8.16913 14.896 8.13089C14.9864 8.09265 15.0834 8.0727 15.1816 8.07221C15.2797 8.07171 15.377 8.09067 15.4677 8.128C15.5585 8.16533 15.6409 8.22028 15.7103 8.28967C15.7797 8.35906 15.8347 8.44153 15.872 8.53229C15.9093 8.62305 15.9283 8.72031 15.9278 8.81845C15.9273 8.91658 15.9074 9.01365 15.8691 9.10403C15.8309 9.19441 15.7751 9.27631 15.705 9.345L13.05 12L15.705 14.655Z" fill="#F44336"/>
</g>
<defs>
<clipPath id="clip0_94_1398">
<rect width="24" height="24" fill="white"/>
</clipPath>
</defs>
</svg>
