<svg width="24" height="24" viewBox="0 0 24 24" fill="none" xmlns="http://www.w3.org/2000/svg">
<g clip-path="url(#clip0_94_1400)">
<path d="M12 23.25C14.225 23.25 16.4001 22.5902 18.2502 21.354C20.1002 20.1179 21.5422 18.3609 22.3936 16.3052C23.2451 14.2495 23.4679 11.9875 23.0338 9.80524C22.5998 7.62295 21.5283 5.61839 19.955 4.04505C18.3816 2.47171 16.3771 1.40025 14.1948 0.966171C12.0125 0.532087 9.75048 0.754875 7.69481 1.60636C5.63914 2.45785 3.88213 3.89979 2.64597 5.74984C1.4098 7.59989 0.75 9.77497 0.75 12C0.751073 14.9834 1.93668 17.8442 4.04623 19.9538C6.15579 22.0633 9.01664 23.2489 12 23.25ZM6.975 11.475C7.04271 11.4039 7.12416 11.3473 7.2144 11.3086C7.30465 11.2699 7.40181 11.25 7.5 11.25C7.59819 11.25 7.69535 11.2699 7.7856 11.3086C7.87584 11.3473 7.95729 11.4039 8.025 11.475L10.5 13.935L15.975 8.47501C16.1147 8.33808 16.3028 8.26183 16.4984 8.26282C16.6941 8.26381 16.8814 8.34195 17.0197 8.48028C17.1581 8.61861 17.2362 8.80594 17.2372 9.00156C17.2382 9.19718 17.1619 9.38529 17.025 9.525L11.025 15.525C10.9573 15.5961 10.8758 15.6527 10.7856 15.6914C10.6953 15.7301 10.5982 15.75 10.5 15.75C10.4018 15.75 10.3047 15.7301 10.2144 15.6914C10.1242 15.6527 10.0427 15.5961 9.975 15.525L6.975 12.525C6.90389 12.4573 6.84728 12.3758 6.8086 12.2856C6.76992 12.1954 6.74998 12.0982 6.74998 12C6.74998 11.9018 6.76992 11.8047 6.8086 11.7144C6.84728 11.6242 6.90389 11.5427 6.975 11.475Z" fill="#1DC824"/>
</g>
<defs>
<clipPath id="clip0_94_1400">
<rect width="24" height="24" fill="white"/>
</clipPath>
</defs>
</svg>
