<svg width="800" height="800" viewBox="0 0 800 800" fill="none" xmlns="http://www.w3.org/2000/svg">
<path d="M650 210H500C497.348 210 494.804 208.946 492.929 207.071C491.054 205.196 490 202.652 490 200V50C490 47.3478 491.054 44.8043 492.929 42.9289C494.804 41.0536 497.348 40 500 40C502.652 40 505.196 41.0536 507.071 42.9289C508.946 44.8043 510 47.3478 510 50V190H650C652.652 190 655.196 191.054 657.071 192.929C658.946 194.804 660 197.348 660 200C660 202.652 658.946 205.196 657.071 207.071C655.196 208.946 652.652 210 650 210Z" fill="#101010"/>
<path d="M650 309.66C647.348 309.66 644.804 308.606 642.929 306.731C641.054 304.856 640 302.312 640 299.66V204.14L495.86 60H200C189.391 60 179.217 64.2143 171.716 71.7157C164.214 79.2172 160 89.3914 160 100V296.34C160 298.992 158.946 301.536 157.071 303.411C155.196 305.286 152.652 306.34 150 306.34C147.348 306.34 144.804 305.286 142.929 303.411C141.054 301.536 140 298.992 140 296.34V100C140 84.087 146.321 68.8258 157.574 57.5736C168.826 46.3214 184.087 40 200 40H500C501.314 39.9977 502.616 40.2543 503.831 40.7554C505.045 41.2564 506.15 41.992 507.08 42.92L657.08 192.92C658.008 193.85 658.744 194.955 659.245 196.169C659.746 197.384 660.002 198.686 660 200V299.66C660 300.973 659.741 302.274 659.239 303.487C658.736 304.7 658 305.803 657.071 306.731C656.142 307.66 655.04 308.396 653.827 308.899C652.614 309.401 651.313 309.66 650 309.66Z" fill="#101010"/>
<path d="M600 760H200C184.087 760 168.826 753.679 157.574 742.426C146.321 731.174 140 715.913 140 700V550C140 547.348 141.054 544.804 142.929 542.929C144.804 541.054 147.348 540 150 540C152.652 540 155.196 541.054 157.071 542.929C158.946 544.804 160 547.348 160 550V700C160 710.609 164.214 720.783 171.716 728.284C179.217 735.786 189.391 740 200 740H600C610.609 740 620.783 735.786 628.284 728.284C635.786 720.783 640 710.609 640 700V550C640 547.348 641.054 544.804 642.929 542.929C644.804 541.054 647.348 540 650 540C652.652 540 655.196 541.054 657.071 542.929C658.946 544.804 660 547.348 660 550V700C660 715.913 653.679 731.174 642.426 742.426C631.174 753.679 615.913 760 600 760Z" fill="#101010"/>
<path d="M550 560H250C247.348 560 244.804 558.946 242.929 557.071C241.054 555.196 240 552.652 240 550C240 547.348 241.054 544.804 242.929 542.929C244.804 541.054 247.348 540 250 540H550C552.652 540 555.196 541.054 557.071 542.929C558.946 544.804 560 547.348 560 550C560 552.652 558.946 555.196 557.071 557.071C555.196 558.946 552.652 560 550 560Z" fill="#101010"/>
<path d="M400 660H250C247.348 660 244.804 658.946 242.929 657.071C241.054 655.196 240 652.652 240 650C240 647.348 241.054 644.804 242.929 642.929C244.804 641.054 247.348 640 250 640H400C402.652 640 405.196 641.054 407.071 642.929C408.946 644.804 410 647.348 410 650C410 652.652 408.946 655.196 407.071 657.071C405.196 658.946 402.652 660 400 660Z" fill="#101010"/>
<path d="M650 560H150C134.087 560 118.826 553.679 107.574 542.426C96.3214 531.174 90 515.913 90 500V346.34C90 330.427 96.3214 315.166 107.574 303.914C118.826 292.661 134.087 286.34 150 286.34H150.4L650.4 289.66C666.232 289.807 681.369 296.188 692.529 307.419C703.689 318.65 709.973 333.827 710.02 349.66V500C710.02 507.881 708.467 515.685 705.451 522.966C702.434 530.247 698.013 536.862 692.439 542.434C686.866 548.005 680.249 552.424 672.967 555.439C665.685 558.453 657.881 560.003 650 560ZM150 306.34C139.391 306.34 129.217 310.554 121.716 318.056C114.214 325.557 110 335.731 110 346.34V500C110 510.609 114.214 520.783 121.716 528.284C129.217 535.786 139.391 540 150 540H650C660.609 540 670.783 535.786 678.284 528.284C685.786 520.783 690 510.609 690 500V349.66C689.969 339.102 685.777 328.983 678.335 321.495C670.892 314.007 660.797 309.755 650.24 309.66L150.24 306.34H150Z" fill="#101010"/>
<path d="M323.811 401.227C323.353 396.947 321.426 393.614 318.028 391.229C314.663 388.844 310.285 387.652 304.894 387.652C301.105 387.652 297.854 388.224 295.142 389.367C292.431 390.511 290.356 392.062 288.919 394.023C287.481 395.983 286.746 398.221 286.713 400.737C286.713 402.827 287.187 404.641 288.135 406.176C289.115 407.712 290.438 409.018 292.104 410.097C293.77 411.142 295.616 412.024 297.642 412.743C299.667 413.462 301.709 414.066 303.767 414.556L313.176 416.908C316.966 417.79 320.609 418.983 324.105 420.486C327.633 421.989 330.786 423.884 333.563 426.17C336.372 428.457 338.594 431.218 340.228 434.452C341.861 437.687 342.678 441.477 342.678 445.822C342.678 451.702 341.175 456.881 338.169 461.357C335.164 465.8 330.818 469.279 325.134 471.795C319.482 474.278 312.637 475.519 304.6 475.519C296.792 475.519 290.013 474.31 284.263 471.893C278.546 469.475 274.07 465.947 270.835 461.308C267.634 456.668 265.902 451.016 265.641 444.352H283.528C283.789 447.847 284.867 450.755 286.762 453.075C288.657 455.394 291.124 457.126 294.162 458.269C297.233 459.413 300.664 459.984 304.453 459.984C308.407 459.984 311.87 459.396 314.843 458.22C317.848 457.011 320.201 455.345 321.899 453.222C323.598 451.065 324.464 448.55 324.497 445.675C324.464 443.061 323.696 440.905 322.193 439.206C320.691 437.474 318.583 436.037 315.872 434.893C313.193 433.717 310.056 432.672 306.463 431.757L295.044 428.817C286.779 426.693 280.245 423.475 275.442 419.163C270.672 414.817 268.287 409.051 268.287 401.864C268.287 395.95 269.888 390.772 273.09 386.329C276.324 381.886 280.718 378.439 286.272 375.989C291.826 373.506 298.115 372.264 305.139 372.264C312.262 372.264 318.502 373.506 323.86 375.989C329.25 378.439 333.481 381.853 336.552 386.231C339.623 390.576 341.208 395.575 341.306 401.227H323.811ZM372.314 373.636L398.434 452.634H399.463L425.534 373.636H445.528L410.146 474H387.702L352.369 373.636H372.314ZM520.593 405.686C519.776 403.04 518.649 400.671 517.212 398.58C515.807 396.457 514.108 394.643 512.115 393.141C510.155 391.638 507.9 390.511 505.352 389.759C502.804 388.975 500.027 388.583 497.021 388.583C491.631 388.583 486.828 389.939 482.614 392.651C478.399 395.362 475.083 399.348 472.665 404.608C470.28 409.835 469.088 416.206 469.088 423.72C469.088 431.3 470.28 437.719 472.665 442.979C475.05 448.239 478.366 452.241 482.614 454.986C486.861 457.697 491.794 459.053 497.413 459.053C502.51 459.053 506.92 458.073 510.645 456.113C514.402 454.153 517.293 451.376 519.319 447.782C521.344 444.156 522.357 439.908 522.357 435.04L526.474 435.678H499.226V421.466H539.95V433.521C539.95 442.114 538.121 449.546 534.462 455.819C530.802 462.092 525.771 466.927 519.368 470.325C512.964 473.69 505.614 475.372 497.315 475.372C488.07 475.372 479.951 473.298 472.959 469.148C466.001 464.967 460.561 459.037 456.641 451.359C452.753 443.649 450.809 434.501 450.809 423.916C450.809 415.814 451.952 408.577 454.239 402.207C456.559 395.836 459.793 390.429 463.942 385.986C468.092 381.51 472.959 378.112 478.546 375.793C484.133 373.44 490.209 372.264 496.776 372.264C502.33 372.264 507.508 373.081 512.311 374.714C517.114 376.315 521.377 378.602 525.101 381.575C528.859 384.548 531.946 388.077 534.364 392.161C536.781 396.244 538.366 400.753 539.117 405.686H520.593Z" fill="#101010"/>
</svg>
