<svg width="800" height="800" viewBox="0 0 800 800" fill="none" xmlns="http://www.w3.org/2000/svg">
<path d="M650 210H500C497.348 210 494.804 208.946 492.929 207.071C491.054 205.196 490 202.652 490 200V50C490 47.3478 491.054 44.8043 492.929 42.9289C494.804 41.0536 497.348 40 500 40C502.652 40 505.196 41.0536 507.071 42.9289C508.946 44.8043 510 47.3478 510 50V190H650C652.652 190 655.196 191.054 657.071 192.929C658.946 194.804 660 197.348 660 200C660 202.652 658.946 205.196 657.071 207.071C655.196 208.946 652.652 210 650 210Z" fill="#101010"/>
<path d="M650 309.66C647.348 309.66 644.804 308.606 642.929 306.731C641.054 304.856 640 302.312 640 299.66V204.14L495.86 60H200C189.391 60 179.217 64.2143 171.716 71.7157C164.214 79.2172 160 89.3914 160 100V296.34C160 298.992 158.946 301.536 157.071 303.411C155.196 305.286 152.652 306.34 150 306.34C147.348 306.34 144.804 305.286 142.929 303.411C141.054 301.536 140 298.992 140 296.34V100C140 84.087 146.321 68.8258 157.574 57.5736C168.826 46.3214 184.087 40 200 40H500C501.314 39.9977 502.616 40.2543 503.831 40.7554C505.045 41.2564 506.15 41.992 507.08 42.92L657.08 192.92C658.008 193.85 658.744 194.955 659.245 196.169C659.746 197.384 660.002 198.686 660 200V299.66C660 300.973 659.741 302.274 659.239 303.487C658.736 304.7 658 305.803 657.071 306.731C656.142 307.66 655.04 308.396 653.827 308.899C652.614 309.401 651.313 309.66 650 309.66Z" fill="#101010"/>
<path d="M600 760H200C184.087 760 168.826 753.679 157.574 742.426C146.321 731.174 140 715.913 140 700V550C140 547.348 141.054 544.804 142.929 542.929C144.804 541.054 147.348 540 150 540C152.652 540 155.196 541.054 157.071 542.929C158.946 544.804 160 547.348 160 550V700C160 710.609 164.214 720.783 171.716 728.284C179.217 735.786 189.391 740 200 740H600C610.609 740 620.783 735.786 628.284 728.284C635.786 720.783 640 710.609 640 700V550C640 547.348 641.054 544.804 642.929 542.929C644.804 541.054 647.348 540 650 540C652.652 540 655.196 541.054 657.071 542.929C658.946 544.804 660 547.348 660 550V700C660 715.913 653.679 731.174 642.426 742.426C631.174 753.679 615.913 760 600 760Z" fill="#101010"/>
<path d="M550 560H250C247.348 560 244.804 558.946 242.929 557.071C241.054 555.196 240 552.652 240 550C240 547.348 241.054 544.804 242.929 542.929C244.804 541.054 247.348 540 250 540H550C552.652 540 555.196 541.054 557.071 542.929C558.946 544.804 560 547.348 560 550C560 552.652 558.946 555.196 557.071 557.071C555.196 558.946 552.652 560 550 560Z" fill="#101010"/>
<path d="M400 660H250C247.348 660 244.804 658.946 242.929 657.071C241.054 655.196 240 652.652 240 650C240 647.348 241.054 644.804 242.929 642.929C244.804 641.054 247.348 640 250 640H400C402.652 640 405.196 641.054 407.071 642.929C408.946 644.804 410 647.348 410 650C410 652.652 408.946 655.196 407.071 657.071C405.196 658.946 402.652 660 400 660Z" fill="#101010"/>
<path d="M650 560H150C134.087 560 118.826 553.679 107.574 542.426C96.3214 531.174 90 515.913 90 500V346.34C90 330.427 96.3214 315.166 107.574 303.914C118.826 292.661 134.087 286.34 150 286.34H150.4L650.4 289.66C666.232 289.807 681.369 296.188 692.529 307.419C703.689 318.65 709.973 333.827 710.02 349.66V500C710.02 507.881 708.467 515.685 705.451 522.966C702.434 530.247 698.013 536.862 692.439 542.434C686.866 548.005 680.249 552.424 672.967 555.439C665.685 558.453 657.881 560.003 650 560ZM150 306.34C139.391 306.34 129.217 310.554 121.716 318.056C114.214 325.557 110 335.731 110 346.34V500C110 510.609 114.214 520.783 121.716 528.284C129.217 535.786 139.391 540 150 540H650C660.609 540 670.783 535.786 678.284 528.284C685.786 520.783 690 510.609 690 500V349.66C689.969 339.102 685.777 328.983 678.335 321.495C670.892 314.007 660.797 309.755 650.24 309.66L150.24 306.34H150Z" fill="#101010"/>
<path d="M233.383 474L205.058 373.636H224.611L242.694 447.39H243.625L262.933 373.636H280.722L300.08 447.439H300.962L319.045 373.636H338.598L310.273 474H292.337L272.244 403.579H271.46L251.319 474H233.383ZM351.205 474V373.636H416.48V388.877H369.386V416.124H413.099V431.365H369.386V458.759H416.872V474H351.205ZM435.029 474V373.636H473.449C480.702 373.636 486.73 374.78 491.533 377.067C496.368 379.321 499.978 382.408 502.363 386.329C504.78 390.249 505.989 394.692 505.989 399.658C505.989 403.742 505.205 407.238 503.637 410.146C502.069 413.021 499.962 415.357 497.315 417.153C494.669 418.95 491.712 420.241 488.445 421.025V422.005C492.006 422.201 495.42 423.295 498.687 425.288C501.987 427.249 504.682 430.026 506.773 433.619C508.864 437.213 509.91 441.558 509.91 446.655C509.91 451.849 508.652 456.521 506.136 460.67C503.621 464.787 499.831 468.038 494.767 470.423C489.703 472.808 483.332 474 475.655 474H435.029ZM453.21 458.808H472.763C479.363 458.808 484.116 457.55 487.024 455.035C489.964 452.487 491.435 449.219 491.435 445.234C491.435 442.261 490.699 439.582 489.229 437.197C487.759 434.779 485.668 432.884 482.957 431.512C480.245 430.107 477.011 429.405 473.253 429.405H453.21V458.808ZM453.21 416.32H471.195C474.332 416.32 477.158 415.749 479.673 414.605C482.189 413.429 484.165 411.779 485.603 409.656C487.073 407.499 487.808 404.951 487.808 402.011C487.808 398.123 486.436 394.921 483.692 392.406C480.98 389.89 476.945 388.632 471.587 388.632H453.21V416.32ZM525.726 474V373.636H563.363C571.073 373.636 577.542 375.074 582.769 377.949C588.029 380.824 591.998 384.777 594.677 389.808C597.389 394.807 598.745 400.491 598.745 406.862C598.745 413.298 597.389 419.016 594.677 424.014C591.966 429.013 587.964 432.95 582.671 435.825C577.378 438.667 570.861 440.088 563.118 440.088H538.174V425.141H560.667C565.176 425.141 568.868 424.357 571.743 422.789C574.618 421.221 576.741 419.065 578.113 416.32C579.518 413.576 580.221 410.423 580.221 406.862C580.221 403.301 579.518 400.165 578.113 397.453C576.741 394.741 574.601 392.634 571.694 391.131C568.819 389.596 565.111 388.828 560.569 388.828H543.907V474H525.726Z" fill="#101010"/>
</svg>
